M48
METRIC,LZ,000.000
;FILE_FORMAT=3:3
;TYPE=PLATED
;Layer: PTH_Through
;EasyEDA v6.5.22, 2023-01-15 02:32:39
;0bdbfba1a4ec4b7484ebadf12ba1fff0,1155796f3fab4927abb0b91c794f2a8a,10
;Gerber Generator version 0.2
;Holesize 1 = 0.800 mm
T01C0.800
;Holesize 2 = 0.914 mm
T02C0.914
;Holesize 3 = 0.915 mm
T03C0.915
;Holesize 4 = 1.000 mm
T04C1.000
;Holesize 5 = 1.001 mm
T05C1.001
;Holesize 6 = 1.016 mm
T06C1.016
;Holesize 7 = 1.270 mm
T07C1.270
%
G05
G90
T01
X066986Y056826
X064446Y056826
X066986Y047767
X064446Y047767
T02
X010471Y076765
X025031Y076765
X015043Y050348
X020885Y050348
X015043Y076764
X020885Y076764
X054159Y026092
X054032Y018599
X040936Y026600
X040936Y024060
X052508Y052889
X040951Y050476
X040925Y076765
X050857Y080067
X028251Y068123
X038177Y068154
X038075Y042221
X037948Y015424
X028251Y035490
X122276Y030283
X126467Y029394
X129515Y028251
X131928Y027235
X134468Y025457
X105512Y073463
X124272Y078670
X125796Y066605
X124747Y063753
X124441Y057207
X125408Y048868
X113937Y034474
X104623Y015551
X113894Y015424
X122530Y015678
X106342Y030283
X117450Y039173
X102083Y045904
X103353Y051111
X100686Y034728
X102845Y032569
X094463Y067621
X094082Y049206
X097384Y086036
X071050Y015018
X078018Y014215
X020295Y036887
X020168Y063176
X019914Y089465
X017242Y018004
X017006Y045396
X017272Y070866
T03
X045015Y076765
X047555Y076765
X045015Y074225
X047555Y074225
X047555Y079305
X045015Y079305
X045015Y050412
X047555Y050412
X045015Y047872
X047555Y047872
X047555Y052952
X045015Y052952
X045015Y024060
X047555Y024060
X045015Y021520
X047555Y021520
X047555Y026600
X045015Y026600
X010471Y079305
X010471Y081845
X010471Y084385
X010471Y050349
X010471Y052889
X010471Y055429
X010471Y057969
X010471Y023933
X010471Y026473
X010471Y029013
X010471Y031553
X066351Y070288
X052381Y070288
X066859Y076384
X052889Y076384
X066859Y082734
X052889Y082734
X055810Y030918
X055810Y044888
X049650Y030918
X049650Y044888
X043491Y030918
X043491Y044888
X071050Y026092
X057080Y026092
X071050Y018599
X057080Y018599
X071050Y011106
X057080Y011106
X108115Y034474
X122085Y034474
X108115Y041314
X122085Y041314
X108115Y048153
X122085Y048153
X108115Y068673
X122085Y068673
X108115Y061833
X122085Y061833
X108115Y054993
X122085Y054993
X108115Y082353
X122085Y082353
X108115Y075513
X122085Y075513
X025031Y089465
X025031Y086925
X025031Y084385
X025031Y081845
X025031Y074225
X025031Y071685
X025031Y079305
X035281Y089465
X035281Y086925
X035281Y084385
X035281Y081845
X035281Y079305
X035281Y076765
X035281Y074225
X035281Y071685
X025031Y063112
X025031Y060572
X025031Y058032
X025031Y055492
X025031Y050412
X025031Y047872
X025031Y045332
X025031Y052952
X035281Y063112
X035281Y060572
X035281Y058032
X035281Y055492
X035281Y052952
X035281Y050412
X035281Y047872
X035281Y045332
X025031Y036760
X025031Y034220
X025031Y031680
X025031Y029140
X025031Y024060
X025031Y021520
X025031Y018980
X025031Y026600
X035281Y036760
X035281Y034220
X035281Y031680
X035281Y029140
X035281Y026600
X035281Y024060
X035281Y021520
X035281Y018980
X090608Y073971
X090608Y071431
X090608Y068891
X090608Y066351
X090608Y063811
X090608Y061271
X090608Y058731
X090608Y056191
X090608Y053651
X090608Y051111
X090608Y048571
X090608Y046031
X090608Y043491
X090608Y040951
X098228Y040951
X098228Y043491
X098228Y046031
X098228Y048571
X098228Y051111
X098228Y053651
X098228Y056191
X098228Y058731
X098228Y061271
X098228Y063811
X098228Y066351
X098228Y068891
X098228Y071431
X098228Y073971
X074219Y049298
X074219Y055548
X042221Y034220
X042094Y060509
X042094Y086925
X084004Y061271
X084004Y063811
X084004Y066351
X015043Y023933
X020885Y023933
T04
X011233Y070387
X011233Y066887
X011233Y042891
X011233Y039391
X011233Y015396
X011233Y011896
X128626Y034728
X136246Y034728
X128753Y041607
X136373Y041607
X128753Y048867
X136373Y048867
X128753Y070648
X136373Y070648
X128753Y063387
X136373Y063387
X128753Y056127
X136373Y056127
X128753Y077908
X136373Y077908
T05
X073533Y006096
X058193Y007677
T06
X098120Y005933
X100660Y005933
X089002Y005933
X091542Y005933
X107239Y005933
X109779Y005933
X116357Y005933
X118897Y005933
X134595Y005933
X137135Y005933
X125476Y005933
X128016Y005933
X107239Y020250
X109779Y020250
X098120Y020250
X100660Y020250
X089002Y020250
X091542Y020250
X125476Y020250
X128016Y020250
X116357Y020250
X118897Y020250
X134595Y020250
X137135Y020250
X080366Y020250
X082906Y020250
T07
X077724Y006855G85X077724Y006861
X082804Y006855G85X082804Y006861
X082804Y006855G85X082804Y006861
X018669Y005204G85X018669Y005210
X023749Y005204G85X023749Y005210
X023749Y005204G85X023749Y005210
M30
